<?xml version="1.0" encoding="UTF-8"?>
<svg width="657px" height="633px" viewBox="0 0 657 633" version="1.1" xmlns="http://www.w3.org/2000/svg" xmlns:xlink="http://www.w3.org/1999/xlink">
    <!-- Generator: Sketch 52.5 (67469) - http://www.bohemiancoding.com/sketch -->
    <title>Group</title>
    <desc>Created with Sketch.</desc>
    <g id="Page-1" stroke="none" stroke-width="1" fill="none" fill-rule="evenodd">
        <g id="Artboard" transform="translate(-87.000000, -45.000000)">
            <g id="Group" transform="translate(87.000000, 45.000000)">
                <path d="M384.572318,616.361878 C388.014342,615.71062 390.799791,615.142964 394.058712,614.423808 C397.317634,613.704653 398.920776,610.837007 400.449356,609.360483 C404.45256,605.493607 411.110731,601.634838 419.472597,598.702123 C436.183568,592.841167 453.370816,592.898199 457.86139,598.829507 C462.351963,604.760815 452.445373,614.320333 435.734401,620.181288 C420.809192,625.415933 405.340083,625.817951 399.040135,621.642226 C398.56427,621.326814 397.690727,620.785322 396.543997,621.041382 C390.914052,622.298525 385.08891,623.440694 379.170914,624.439197 C375.484583,628.495379 365.074165,632.02808 352.844032,632.669034 C344.070574,633.128831 336.147662,632.07748 330.806343,630.051653 C329.876429,629.69896 326.99852,628.915312 324.506145,628.871923 C317.432152,628.748775 310.604392,628.3111 304.071388,627.543277 C276.554011,624.309163 248.266385,617.965463 221.387162,608.847068 C219.194123,608.103111 211.864517,607.461053 210.13493,607.709614 C202.757352,608.769855 192.622875,607.369133 182.196877,603.366968 C168.485466,598.10365 158.159354,589.834083 155.171994,582.547944 C154.545553,581.020061 151.251836,576.109606 148.450411,574.511981 C138.030854,567.887918 128.344777,560.768454 119.479064,553.178545 C118.790247,552.463655 117.046312,551.693955 115.039302,552.036544 C110.935008,552.255874 106.14021,550.489041 102.155934,546.901582 C95.5890927,540.988772 93.7107861,532.369244 97.9606183,527.649327 C102.210451,522.92941 110.979097,523.896441 117.545937,529.809251 C122.254784,534.049116 124.155536,539.676774 123.909427,544.268316 C123.823727,545.867175 124.077119,547.839039 124.887741,548.590374 C132.581371,555.721313 142.306547,562.373496 152.20965,568.562581 C155.7879,570.160029 162.279511,569.678592 165.441569,569.192147 C172.841925,568.05369 182.070774,569.73914 193.664652,573.492394 C198.684595,575.117487 211.448851,574.717034 217.485737,572.658358 C223.988681,570.440748 232.746275,567.143631 243.758517,562.767007 C246.779066,561.566542 247.525774,557.562344 246.059378,554.957532 C244.090249,551.459695 243.10268,547.691944 243.324761,543.833591 C244.184657,528.894091 262.854365,518.253555 285.024722,520.067289 C300.907387,521.366633 314.277947,528.705234 320.268293,538.256025 C322.1772,541.299517 329.49585,543.818953 334.782772,542.643538 C340.069695,541.468122 377.910933,532.842797 380.220404,532.313022 C382.529875,531.783246 384.24211,529.120558 385.17336,527.900237 C388.721511,523.250698 394.974435,519.314305 402.707657,517.424292 C411.872242,515.184451 420.811829,516.381738 426.545033,520.023873 C429.773152,522.074601 435.023036,522.53856 439.001335,521.28333 L473.601272,510.366379 C476.032411,509.599308 476.620778,506.526701 476.884413,504.151276 C477.686233,496.926646 482.761734,489.025307 490.937952,483.510378 C503.288963,475.179516 518.038481,475.448976 523.881922,484.112234 C529.725363,492.775491 524.449935,506.551947 512.098924,514.882809 C501.755087,521.859816 489.728966,522.804659 482.660928,517.838653 C480.615383,516.401452 477.140704,515.541193 473.820804,516.588685 L438.489659,527.736346 C434.017308,529.147459 433.043495,531.064238 432.460707,533.327925 C431.728849,536.17064 429.970869,538.948539 427.411686,541.416727 C425.425924,543.331882 427.378728,545.758156 429.174872,546.58658 C435.645735,549.571093 443.141843,554.000198 452.969711,558.533042 C458.472882,561.071233 467.830382,565.121537 481.042212,570.683954 C483.595168,571.758795 486.537561,570.99232 487.286408,570.318055 C491.257276,566.74267 496.554159,565.856386 499.956245,567.705057 C501.246487,568.406166 503.199965,568.900184 505.615841,567.575754 C514.542912,562.681763 527.580629,555.5249 544.728991,546.105165 C547.790637,544.423378 549.533864,540.881052 550.074494,538.435949 C550.950663,534.473309 553.23218,530.03165 556.737148,525.999645 C563.921575,517.734907 573.525876,514.321067 578.188954,518.374619 C582.852033,522.428171 580.808075,532.414118 573.623648,540.678856 C566.972006,548.330695 558.24609,551.824428 553.28778,549.083564 C552.158608,548.459378 550.950606,548.390822 549.050457,549.43252 L505.157251,573.495615 C503.674968,574.308231 503.153742,575.283867 502.904219,576.238491 C502.289062,578.591956 500.842606,580.987756 498.661628,582.951518 C493.941711,587.20135 487.569033,587.818423 484.427853,584.329788 C483.541055,583.3449 483.006827,582.139443 482.802462,580.817493 C482.598097,579.495544 482.304754,578.816247 480.671421,578.123635 C464.75673,571.375037 453.567645,566.510185 447.104165,563.529076 C436.026007,558.419571 427.400056,553.476665 420.125782,550.1216 C417.737609,549.020119 415.308669,548.623425 412.103035,549.406887 C400.604363,552.217183 389.34282,549.626232 384.558361,543.565147 C383.950085,542.794565 382.281751,542.099903 380.124277,542.594815 C377.966802,543.089728 378.797931,542.899068 378.262153,543.021961 C374.836911,543.807623 372.275665,544.394782 369.760681,544.970747 C369.160265,545.108241 369.160265,545.108241 368.559766,545.245721 C349.592464,549.587859 336.424891,552.556947 326.768403,554.639725 C324.096393,555.216043 322.570131,556.101598 321.204865,558.54978 C319.59618,561.43446 317.243222,564.028018 314.3036,566.24063 C312.190225,567.831337 311.210486,570.961898 312.967579,573.251561 C318.192694,580.060392 327.076006,591.655756 339.880156,608.379283 C341.992314,611.137977 345.235626,612.243398 348.514334,611.934263 C351.793041,611.625128 350.651425,611.755124 351.744977,611.697814 C360.401648,611.244137 368.230267,612.261645 373.567997,614.234815 C375.923639,615.105612 379.985992,617.229647 384.572318,616.361878 Z M295.194308,573.751833 C291.005207,574.382857 286.534103,574.546234 281.910765,574.168004 C276.656118,573.738126 271.341611,572.782036 266.813182,571.168679 C263.963045,570.153252 258.6792,570.001861 255.343799,571.272857 C247.093569,574.416708 234.829117,579.03243 218.550442,585.120021 C216.551839,585.867421 216.848186,588.354009 217.619795,589.309488 C219.645507,591.817916 220.954487,594.316425 221.400385,596.657323 C222.039176,600.010883 224.175667,602.411382 226.828246,603.285581 C252.280912,611.673903 278.940776,617.541498 304.888473,620.591128 C311.037271,621.313795 317.474202,621.733974 324.152474,621.864196 C325.122447,619.465301 328.21414,617.221438 332.696476,615.446323 C319.032575,597.599756 309.411448,585.042286 304.17959,578.22461 C302.058885,575.461101 298.181578,573.301846 295.194308,573.751833 Z M191.156076,580.027457 C176.977015,574.584626 164.038593,573.934143 162.257303,578.574563 C160.476012,583.214983 170.526392,591.389073 184.705453,596.831905 C198.884514,602.274737 211.822936,602.92522 213.604226,598.2848 C214.524164,595.888279 212.288416,592.549275 207.95802,589.130741 L207.164972,589.432942 L206.681825,588.165048 C202.7105,585.279485 197.323905,582.395065 191.156076,580.027457 Z M352.530016,626.677257 C362.181754,626.17143 369.900591,623.74942 369.770521,621.267544 C369.640451,618.785669 361.71073,617.183765 352.058992,617.689591 C342.407255,618.195417 334.688418,620.617428 334.818487,623.099303 C334.948557,625.581178 342.878278,627.183083 352.530016,626.677257 Z M106.839848,541.699568 C110.123268,544.655973 114.133116,545.555386 115.796094,543.708462 C117.459072,541.861538 116.145444,537.96767 112.862023,535.011265 C109.578603,532.05486 105.568755,531.155448 103.905777,533.002372 C102.242799,534.849296 103.556427,538.743163 106.839848,541.699568 Z M488.432826,507.679887 C491.750673,512.598797 500.15463,512.73201 507.20359,507.977427 C514.25255,503.222843 517.277215,495.380927 513.959368,490.462017 C510.641522,485.543107 502.237564,485.409895 495.188605,490.164478 C488.139645,494.919062 485.11498,502.760977 488.432826,507.679887 Z M394.163402,536.471615 C395.551717,540.959716 402.696252,543.200997 410.121168,541.477656 C417.546084,539.754315 422.439717,534.718946 421.051402,530.230845 C419.663088,525.742745 412.518553,523.501464 405.093637,525.224805 C397.668721,526.948146 392.775088,531.983515 394.163402,536.471615 Z M255.0239,544.844747 C254.855682,554.419199 267.701469,563.667991 283.715768,565.502502 C299.730067,567.337012 312.848589,561.06255 313.016807,551.488098 C313.185025,541.913646 300.339239,532.664854 284.32494,530.830343 C268.310641,528.995833 255.192118,535.270295 255.0239,544.844747 Z M557.865867,541.753657 C559.527876,543.19842 564.150028,540.602373 568.189732,535.955225 C572.229437,531.308077 574.156939,526.369608 572.49493,524.924845 C570.83292,523.480082 566.210768,526.076128 562.171064,530.723276 C558.13136,535.370425 556.203857,540.308894 557.865867,541.753657 Z M495.315975,579.235793 C497.573327,577.203265 498.354742,574.391065 497.061315,572.954568 C495.767887,571.518072 492.889413,572.001251 490.632061,574.03378 C488.374709,576.066308 487.593294,578.878508 488.886722,580.315005 C490.180149,581.751501 493.058624,581.268322 495.315975,579.235793 Z M407.131327,616.128502 C409.80499,618.172048 421.095942,617.076396 432.350374,613.681294 C443.604807,610.286192 450.560894,605.877296 447.887231,603.83375 C445.213568,601.790204 433.922616,602.885856 422.668184,606.280958 C411.413752,609.67606 404.457664,614.084955 407.131327,616.128502 Z M354.18498,93.1350305 C355.456676,95.7966702 355.86534,96.6608042 359.156789,103.422641 C362.448238,110.184478 368.603305,113.35778 376.488782,113.816116 C393.302652,114.793406 407.839375,122.174947 416.133285,132.855978 C421.869768,140.243513 432.165954,146.501975 441.232083,147.411661 C454.101833,148.702997 478.630207,151.918263 491.895629,155.515132 C505.16105,159.112 510.660738,155.954073 512.827101,151.190834 C516.260535,143.641654 521.321751,138.868885 526.96622,138.868885 C536.320138,138.868885 544.072297,151.976133 545.468985,169.105103 C545.796272,173.118945 549.480362,178.512505 551.652707,179.497796 L584.888956,194.572467 C586.845858,195.460041 587.844834,194.852493 588.104023,193.673184 C589.290774,188.273471 591.219971,184.67632 593.213504,184.780797 C596.134327,184.933871 598.087201,192.975118 597.575371,202.741425 C597.06354,212.507733 594.280825,220.300798 591.360002,220.147724 C589.176154,220.033274 587.533418,215.509105 587.057401,209.151252 C586.944254,207.640024 585.667213,205.905971 584.079696,205.185935 L550.813628,190.09774 C548.375891,188.992078 544.236442,189.210415 543.053137,192.994938 C539.783793,203.451161 533.802827,210.452895 526.96622,210.452895 C518.157436,210.452895 509.911359,198.890469 508.771462,183.168665 C508.217354,175.526246 499.200019,173.332682 493.718602,172.034529 C474.271884,167.429004 448.827289,164.865935 438.44642,163.840895 C431.508617,163.155834 422.68723,164.085578 418.279313,171.080382 C409.987663,184.238174 392.679969,193.289429 372.672051,193.289429 C351.349124,193.289429 333.093028,183.009299 325.548531,168.434205 C324.305018,166.031884 321.18027,163.122506 316.548256,163.782207 C311.916242,164.441908 304.694228,165.692511 299.589356,166.845172 C296.499508,167.542848 295.456286,170.629651 295.14654,173.042841 C293.411064,186.563718 279.575624,197.097127 262.765169,197.097127 C253.997183,197.097127 245.21952,194.133779 239.364977,189.473373 C236.830227,187.45563 228.001805,184.217937 220.705943,186.383578 C210.562645,189.394429 199.734674,192.921476 187.964701,197.802964 C184.50957,199.235948 182.04431,203.209729 182.124495,207.964912 C182.317511,219.411287 173.805813,229.223982 162,232.450089 L162,327.287145 C173.494406,330.318229 181.9359,339.643467 182.124495,350.827682 C182.317511,362.274057 173.805813,372.086752 162,375.312859 L162,458 L146,458 L146,375.528855 C134.236017,372.648055 125.537072,363.208976 125.34559,351.85358 C125.149697,340.236647 133.919862,330.302443 146,327.228593 L146,232.666085 C134.236017,229.785285 125.537072,220.346206 125.34559,208.990809 C125.246249,203.099675 127.452682,197.641281 131.227258,193.290863 C132.15711,192.219154 133.306048,188.254024 131.083268,183.425863 C128.860489,178.597702 127.739494,176.028399 126.227083,172.421426 C124.637689,168.630854 123.210414,164.995611 121.963767,161.52112 C119.670462,155.129517 117.258381,145.023775 113.148758,143.770232 C109.039136,142.516689 109.512676,142.599909 107.708118,141.330702 C105.903559,140.061495 102.709327,140.511798 99.9311138,143.86374 C93.1858142,152.00201 84.9638336,164.113606 79.4719984,174.224087 C77.2838201,178.252528 78.150306,179.937776 78.5500602,181.818472 C80.0668812,188.954553 76.6755646,195.721702 70.9753427,196.933322 C65.2751208,198.144941 59.4245516,193.342216 57.9077306,186.206134 C56.3909096,179.070053 59.7822261,172.302904 65.4824481,171.091284 C66.4792456,170.879408 65.0873241,170.519334 68.462655,170.98772 C71.8379859,171.456106 73.3850376,170.726796 74.5707275,168.627422 C81.0517255,157.152208 90.3157002,143.945908 97.4411749,136.046562 C99.564163,133.693004 100.368501,131.262376 100.349695,127.2969 C100.31244,119.441116 105.536522,111.434503 114.141326,107.422017 C125.383106,102.179889 138.138141,105.740111 142.630495,115.373995 C145.760262,122.085801 142.17601,127.982199 149.687263,131.106642 C157.198516,134.231086 160.147106,135.151277 166.705635,137.20222 C168.387932,132.832455 169.998992,128.779775 172.63762,122.377155 C175.276248,115.974536 168.522962,111.142616 166.836948,107.833627 C160.826754,96.0379574 169.300395,79.6756194 185.763354,71.2873225 C189.156099,69.5586328 190.977044,68.5563102 196.32898,67.304122 C201.680915,66.0519338 204.999096,63.199229 208.038681,59.2738225 C216.683417,48.1097637 223.262552,39.510027 227.385934,34.0347671 C228.723704,32.2584008 228.945931,30.7263661 227.071656,29.9586876 C225.19738,29.1910091 223.201567,28.119671 221.849128,27.0960505 C219.945951,25.6555939 216.728217,26.1667063 210.565507,29.0018637 C204.402796,31.8370211 200.560842,34.8574231 197.924051,36.0371652 C195.28726,37.2169074 192.806243,40.2927666 191.783702,42.8671362 C190.761161,45.4415059 184.054737,54.9866066 176.497394,60.0840992 C163.725372,68.6989363 149.780607,70.3587704 145.350888,63.7914424 C140.92117,57.2241144 147.683942,44.9165378 160.455963,36.3017008 C168.976294,30.5546648 178.018537,27.9028452 184.40963,28.7239289 C185.517398,28.8662473 188.646929,28.8058696 191.004142,27.547319 C193.361356,26.2887685 200.894356,22.4435995 206.386073,19.9171329 C208.847859,18.7845872 213.949546,16.8234858 216.598929,15.867208 C219.248312,14.9109303 221.193977,12.97879 222.19276,12.1218504 C227.912063,7.21478055 238.568307,3.34693386 251.01306,2.25815907 C270.133295,0.585355271 286.234956,6.10615694 286.977128,14.5892147 C287.719299,23.0722725 272.820935,31.305225 253.7007,32.9780288 C247.13271,33.5526535 240.413537,33.2875015 236.728965,38.2002202 C233.044393,43.1129389 226.80543,51.2372788 217.982424,62.618224 C215.042126,66.4109635 216.484194,68.5396107 217.613408,69.0824809 C221.476055,70.9394503 225.539164,75.6602756 226.454599,77.456917 C227.370033,79.2535584 231.428896,78.2996144 234.229188,77.2627432 C243.721567,73.7479768 250.612526,71.4029052 259.77751,68.1121054 C263.671294,66.7139944 269.668119,64.646358 277.776261,61.9061819 C282.702881,60.2412125 286.611862,56.3318783 287.458622,53.7810037 C290.85743,43.5420622 305.519812,35.8413319 323.092456,35.8413319 C326.688406,35.8413319 327.227591,35.6264086 333.443126,36.7644946 C339.658662,37.9025805 350.157514,38.6042508 355.003759,37.2448888 C364.604928,34.55178 376.800729,31.6223051 388.897116,28.9748114 L353.567021,14.3887619 C342.153713,12.9492342 333.306932,8.77293845 333.767341,5.02321136 C334.23062,1.25010371 343.942082,-0.662300063 355.458497,0.751737986 C362.847977,1.65905201 369.18509,3.71544242 372.655613,6.06950931 C385.067995,6.59898764 396.04013,8.05714778 411.287476,11.0395695 C416.221398,8.19786298 428.083652,8.82365594 440.983161,13.0149606 C456.846365,18.1692277 468.271127,26.7637703 466.501082,32.2114087 C464.731037,37.6590471 450.436465,37.8968715 434.573261,32.7426044 C430.851391,31.5332954 424.142555,30.1101025 420.095189,30.8556805 C416.047822,31.6012585 414.244389,31.9476757 411.315887,32.5154654 L441.296149,45.3127266 C447.832961,48.1030055 458.546333,46.2354293 465.850354,45.6256816 C473.154375,45.0159338 486.749346,46.1375459 497.779454,49.9355165 C527.86028,60.2931756 546.617263,85.0356167 539.674349,105.199305 C532.731434,125.362994 502.717762,133.312352 472.636935,122.954693 C442.556109,112.597034 422.370187,87.4610368 430.742041,67.6909039 C434.072366,59.8263423 435.431947,49.3333132 425.854245,45.2450117 L400.903142,34.5944788 C388.41804,37.1603635 376.310147,39.9165356 365.753862,42.6402153 C358.920842,44.4032367 357.376214,49.654849 358.746493,53.8422992 C360.116772,58.0297494 359.468968,56.788529 359.468968,58.3227646 C359.468968,62.8407814 357.976926,66.4166974 353.600967,70.5712826 C349.225008,74.7258678 348.086207,81.8208232 350.170863,85.5174242 C352.255519,89.2140252 353.140333,90.9486017 354.18498,93.1350305 Z M313.889007,80.0784318 C305.732036,78.7640978 298.689758,75.7439285 293.819492,71.6713691 C291.435992,69.678266 285.365776,69.8956123 280.328727,71.5992938 C272.607238,74.2109334 266.880761,76.1866873 263.15689,77.5237889 C256.25178,80.0031534 250.902137,81.9494394 244.609191,84.2673119 C237.056188,87.0492998 229.507197,90.1390222 224.597866,98.4936138 C221.043838,104.541779 215.139973,110.124826 207.528192,114.003222 C201.997488,116.821256 196.268698,118.380829 190.871237,118.762209 C187.299644,119.014575 183.98278,121.106406 182.267824,125.255721 C179.993406,130.758651 178.014763,135.684742 176.332602,140.031504 C177.874405,140.458113 179.456929,140.884312 181.080795,141.309778 C189.269328,143.45524 206.259126,146.520673 231.906823,150.469886 C237.894078,151.391799 240.772297,150.010739 244.195692,148.04217 C249.46303,145.013273 255.863358,143.23771 262.765169,143.23771 C269.516131,143.23771 275.787292,144.936506 280.987648,147.845366 C284.921545,150.045821 289.883142,151.090954 295.872438,150.980765 C302.494041,150.621195 307.639533,150.160029 311.308917,149.59727 C317.491338,148.649095 324.887478,139.435198 326.893662,136.188866 C329.005351,132.771811 331.72283,129.627051 334.936898,126.840082 C337.908823,124.263078 343.345674,116.646814 340.315577,110.410851 C337.285481,104.174889 337.248223,104.078833 336.138967,101.757178 C334.650977,98.6428389 332.293729,94.4016962 329.085072,89.0791635 C326.561173,84.8925107 320.072528,81.0747834 313.889007,80.0784318 Z M230.507832,166.451535 C230.844079,164.43685 231.449824,162.493321 232.294007,160.646631 C205.23566,156.503596 187.371251,153.295473 178.546265,150.983255 C176.586117,150.46968 174.682355,149.954437 172.833998,149.438031 C172.619645,150.045704 172.414736,150.634897 172.219273,151.205596 C169.939751,157.861184 167.090782,167.415239 163.681384,179.845105 C162.670993,183.528757 163.313309,184.746982 164.984773,185.37709 C166.92556,186.108727 167.371573,186.14239 170.444321,188.107054 C173.51707,190.071718 178.074253,189.450934 183.047699,187.227677 C196.448544,181.237157 209.703616,177.077835 221.46025,173.664088 C224.487877,172.784963 229.690034,171.351518 230.507832,166.451535 Z M162.75877,147.965398 C162.911839,147.518478 163.07029,147.06115 163.234126,146.593407 C156.588846,144.501728 150.814292,142.4061 145.846604,140.339699 C139.818136,137.832047 135.267276,139.468045 133.564632,140.567481 C132.571809,141.20857 133.155996,141.028723 130.409579,142.309398 C127.663163,143.590073 127.993769,151.677796 130.43499,158.481647 C131.624601,161.797178 132.995218,165.288113 134.526989,168.941259 C135.995565,172.44369 137.474199,174.705454 139.182069,178.415165 C140.803699,181.937553 142.712646,185.263402 145.416236,184.519953 C146.928374,184.104137 148.494685,183.796233 150.103831,183.606801 C152.290913,183.349334 152.773488,181.835624 153.423337,179.448015 C157.155803,165.734564 160.264038,155.249342 162.75877,147.965398 Z M154.063025,370.790853 C166.218811,370.571219 175.926181,361.685009 175.745041,350.942948 C175.563902,340.200886 165.562847,331.670774 153.40706,331.890408 C141.251273,332.110043 131.543904,340.996253 131.725043,351.738314 C131.906183,362.480375 141.907238,371.010487 154.063025,370.790853 Z M154.063025,227.928083 C166.218811,227.708449 175.926181,218.822239 175.745041,208.080177 C175.563902,197.338116 165.562847,188.808004 153.40706,189.027638 C141.251273,189.247273 131.543904,198.133482 131.725043,208.875544 C131.906183,219.617605 141.907238,228.147717 154.063025,227.928083 Z M204.215912,107.502506 C216.35714,101.316241 222.810284,89.6494726 218.629412,81.4440489 C214.448539,73.2386252 201.216863,71.6017735 189.075635,77.7880382 C176.934406,83.9743029 170.481263,95.6410715 174.662135,103.846495 C178.843007,112.051919 192.074684,113.688771 204.215912,107.502506 Z M127.589262,136.261209 C134.93322,132.836665 138.5076,124.958585 135.572864,118.665023 C132.638128,112.371461 124.3056,110.045662 116.961643,113.470206 C109.617686,116.894749 106.043306,124.77283 108.978042,131.066392 C111.912778,137.359954 120.245305,139.685753 127.589262,136.261209 Z M73.3812099,182.917145 C72.4523645,178.54727 69.3926166,175.495106 66.5470719,176.099945 C63.7015271,176.704784 62.1477353,180.737587 63.0765808,185.107461 C64.0054263,189.477336 67.0651742,192.5295 69.9107189,191.92466 C72.7562637,191.319821 74.3100554,187.287019 73.3812099,182.917145 Z M372.672051,181.613379 C394.623421,181.613379 412.418522,169.025479 412.418522,153.497518 C412.418522,137.969557 394.623421,125.381657 372.672051,125.381657 C350.72068,125.381657 332.925579,137.969557 332.925579,153.497518 C332.925579,169.025479 350.72068,181.613379 372.672051,181.613379 Z M526.96622,202.432004 C532.827444,202.432004 537.578905,189.998452 537.578905,174.66089 C537.578905,159.323327 532.827444,146.889776 526.96622,146.889776 C521.104995,146.889776 516.353534,159.323327 516.353534,174.66089 C516.353534,189.998452 521.104995,202.432004 526.96622,202.432004 Z M591.707029,213.526058 C592.621698,213.573993 593.622736,208.660318 593.942909,202.551056 C594.263082,196.441794 593.781147,191.4504 592.866477,191.402464 C591.951808,191.354528 590.950771,196.268204 590.630598,202.377465 C590.310425,208.486727 590.79236,213.478122 591.707029,213.526058 Z M262.765169,185.892888 C274.043855,185.892888 283.187036,178.852355 283.187036,170.167419 C283.187036,161.482482 274.043855,154.441949 262.765169,154.441949 C251.486484,154.441949 242.343302,161.482482 242.343302,170.167419 C242.343302,178.852355 251.486484,185.892888 262.765169,185.892888 Z M172.600884,54.3072865 C180.961019,48.6683042 185.891778,41.3595018 183.614042,37.9826194 C181.336306,34.605737 172.712608,36.4395313 164.352473,42.0785135 C155.992338,47.7174958 151.061579,55.0262982 153.339315,58.4031806 C155.617051,61.780063 164.240749,59.9462687 172.600884,54.3072865 Z M253.119118,26.3305157 C267.744444,25.0509655 279.259348,20.113001 278.838375,15.3012633 C278.417403,10.4895257 266.219968,7.626122 251.594642,8.90567223 C236.969316,10.1852225 225.454412,15.1231869 225.875384,19.9349246 C226.296357,24.7466622 238.493792,27.6100659 253.119118,26.3305157 Z M323.092456,74.0846407 C339.131174,74.0846407 352.133123,67.0278084 352.133123,58.3227646 C352.133123,49.6177208 339.131174,42.5608886 323.092456,42.5608886 C307.053739,42.5608886 294.051789,49.6177208 294.051789,58.3227646 C294.051789,67.0278084 307.053739,74.0846407 323.092456,74.0846407 Z M409.338338,16.7726441 C395.515763,14.091274 385.331416,12.7125219 374.177017,12.1469946 C373.447006,12.7169792 372.43283,13.2084591 371.186437,13.6112047 C369.810338,14.0558622 371.07561,15.3327142 372.074439,15.7685423 C377.996942,18.3527626 386.988493,22.1999031 399.049092,27.3099639 L408.990207,25.7723173 C414.269099,25.0336281 416.017511,23.9431358 414.235442,22.5008404 C411.805649,20.5343169 410.10724,18.5752424 409.338338,16.7726441 Z M435.791859,26.8632706 C446.411137,30.3136831 455.602054,31.3186859 456.320347,29.1080071 C457.03864,26.8973283 449.012306,22.308107 438.393028,18.8576945 C427.77375,15.407282 418.582833,14.4022792 417.86454,16.612958 C417.146247,18.8236368 425.172581,23.412858 435.791859,26.8632706 Z M354.330754,9.93646947 C361.396247,10.8040029 367.253306,10.4538414 367.412862,9.15436189 C367.572418,7.85488242 361.97405,6.09817139 354.908558,5.230638 C347.843065,4.36310461 341.986006,4.7132661 341.82645,6.01274558 C341.666894,7.31222506 347.265262,9.06893608 354.330754,9.93646947 Z M476.307045,112.295921 C500.742844,120.709841 524.537153,115.956866 529.453122,101.679855 C534.369092,87.4028436 518.545143,69.008209 494.109345,60.5942887 C469.673546,52.1803684 445.879236,56.9333429 440.963267,71.2103543 C436.047298,85.4873657 451.871246,103.882 476.307045,112.295921 Z M599.998254,358.017354 C597.687378,357.526163 596.98065,351.63952 598.419732,344.869169 C599.858814,338.098819 602.898756,333.008555 605.209632,333.499747 C607.520508,333.990939 608.227237,339.877582 606.788155,346.647932 C605.349072,353.418283 602.30913,358.508546 599.998254,358.017354 Z M601.190525,352.40816 C602.141355,352.610265 603.544963,349.796972 604.325572,346.124494 C605.106181,342.452017 604.968191,339.311047 604.017361,339.108942 C603.066532,338.906837 601.662924,341.72013 600.882314,345.392607 C600.101705,349.065085 600.239696,352.206055 601.190525,352.40816 Z M576.7175,111.776351 C572.879788,113.90363 567.440822,111.428513 564.56923,106.248024 C561.697638,101.067534 562.480833,95.1434174 566.318545,93.0161388 C570.156257,90.8888603 575.595223,93.3639769 578.466815,98.5444666 C581.338407,103.724956 580.555212,109.649073 576.7175,111.776351 Z M574.31831,107.448098 C575.612305,106.730825 575.407563,103.887569 573.861007,101.097508 C572.31445,98.3074464 570.011729,96.6271192 568.717735,97.344392 C567.42374,98.0616648 567.628482,100.904921 569.175038,103.694982 C570.721595,106.485044 573.024316,108.165371 574.31831,107.448098 Z M153.941152,220.700686 C146.302264,220.838708 140.017444,215.478251 139.903613,208.727771 C139.789782,201.977291 145.890046,196.393057 153.528933,196.255035 C161.167821,196.117013 167.452641,201.47747 167.566472,208.22795 C167.680303,214.97843 161.580039,220.562664 153.941152,220.700686 Z M153.923354,362.507989 C146.9441,362.634092 141.201988,357.736523 141.097986,351.568961 C140.993985,345.401399 146.567478,340.299375 153.546731,340.173272 C160.525984,340.047169 166.268097,344.944739 166.372098,351.112301 C166.4761,357.279863 160.902607,362.381886 153.923354,362.507989 Z M369.735042,375.384009 L369.735042,458 L353.735042,458 L353.735042,375.462732 C342.105625,372.505938 333.535631,363.123556 333.34559,351.85358 C333.111948,337.998002 345.632935,326.536183 361.311997,326.252889 C376.991058,325.969595 389.890853,336.972105 390.124495,350.827682 C390.318952,362.35951 381.67824,372.233175 369.735042,375.384009 Z M362.063025,371.032916 C374.218811,370.813282 383.926181,361.927072 383.745041,351.185011 C383.563902,340.442949 373.562847,331.912837 361.40706,332.132471 C349.251273,332.352106 339.543904,341.238316 339.725043,351.980377 C339.906183,362.722438 349.907238,371.25255 362.063025,371.032916 Z M361.923386,362.752 C354.942916,362.878125 349.199802,357.979701 349.095782,351.811063 C348.991763,345.642426 354.566228,340.539513 361.546698,340.413388 C368.527169,340.287262 374.270283,345.185686 374.374302,351.354324 C374.478322,357.522961 368.903857,362.625875 361.923386,362.752 Z" id="Shape" fill="#343434" fill-rule="nonzero"></path>
                <path d="M56.6746783,229.444128 C78.6496264,229.444128 102.06645,236.554842 102.06645,261.562475 L102.06645,313.501407 L86.3843026,313.501407 C86.3843026,288.52458 86.3843026,272.066564 86.3843026,264.127361 C86.3843026,252.218555 72.9289903,242.826716 56.0133725,243.052172 C39.0977547,243.277627 22.9713454,251.559756 22.5100724,264.392577 C22.202557,272.94779 22.202557,289.3174 22.5100724,313.501407 L6.06645025,313.501407 L6.06645025,231.264765 L21.9010492,231.264765 L21.7755412,241.433408 C30.3916672,233.440555 42.0247129,229.444128 56.6746783,229.444128 Z M607.747145,229.142925 C629.722093,229.142925 653.792024,236.52371 653.792024,261.531344 L653.792024,313.470275 L638.109877,313.470275 C638.109877,288.493448 638.109877,272.035433 638.109877,264.096229 C638.109877,252.187424 624.654565,242.795584 607.738947,243.02104 C590.823329,243.246496 574.69692,251.528625 574.235647,264.361445 C573.928131,272.916659 573.928131,289.286269 574.235647,313.470275 L557.792024,313.470275 L557.792024,231.233634 L573.626623,231.233634 L573.501115,241.402276 C581.681836,233.229376 593.09718,229.142925 607.747145,229.142925 Z M237.80275,228.213701 C261.052039,228.213701 272.393866,234.143162 283.810119,242.931865 L269.88022,251.130986 C258.667829,244.749793 252.636901,242.704935 238.370077,242.704935 C224.103254,242.704935 208.60329,243.529339 208.60329,253.382525 C208.60329,263.235711 229.547324,263.587904 252.525445,265.2641 C275.503565,266.940296 285.23445,274.613829 284.289186,290.909709 C283.343923,307.205589 264.312991,317.071928 238.873916,317.072583 C213.434841,317.073238 199.004714,312.518218 182.532885,300.060361 L196.395763,290.914949 C203.266285,294.973463 214.786805,303.603373 237.848807,303.603373 C260.910809,303.603373 267.979147,295.300319 268.093121,291.302067 C268.207095,287.303815 268.236571,277.47194 228.579596,277.746394 C212.684989,277.856396 189.151223,272.751199 190.371586,252.740523 C191.591948,232.729846 214.553461,228.213701 237.80275,228.213701 Z M356.739185,228.213701 C379.988474,228.213701 391.3303,234.143162 402.746553,242.931865 L388.816654,251.130986 C377.604263,244.749793 371.573335,242.704935 357.306512,242.704935 C343.039688,242.704935 327.539724,243.529339 327.539724,253.382525 C327.539724,263.235711 348.483758,263.587904 371.461879,265.2641 C394.44,266.940296 404.170884,274.613829 403.22562,290.909709 C402.280357,307.205589 383.249426,317.071928 357.81035,317.072583 C332.371275,317.073238 317.941148,312.518218 301.469319,300.060361 L315.332197,290.914949 C322.202719,294.973463 333.72324,303.603373 356.785241,303.603373 C379.847243,303.603373 386.915582,295.300319 387.029555,291.302067 C387.143529,287.303815 387.173005,277.47194 347.51603,277.746394 C331.621424,277.856396 308.087658,272.751199 309.30802,252.740523 C310.528383,232.729846 333.489895,228.213701 356.739185,228.213701 Z M103.100955,338.558659 L102.320033,457.54067 L86.3339209,457.632983 L86.0821577,446.932619 C78.0941608,456.355666 58.7664773,459.475867 48.2249706,459.475867 C22.573971,459.475867 0.261115234,444.800625 0.261115234,416.579007 C0.261115234,389.002454 22.573971,373.037081 48.5763541,373.037081 C70.2978914,373.037081 78.074568,379.97133 86.5077733,384.809322 L87.2886953,338.558659 L103.100955,338.558659 Z M16.9518341,416.579007 C16.9518341,436.253506 32.5884024,446.090756 49.9818884,446.090756 C67.3753744,446.090756 86.9807589,440.091759 87.1266525,416.220081 C87.2725461,392.348404 65.1051125,386.149218 50.5089637,386.260925 C35.9128149,386.372633 16.9518341,395.936909 16.9518341,416.579007 Z M477.330944,229.095057 C514.604456,229.764256 519.604633,241.50943 519.524323,257.595388 C519.444013,273.681347 519.701984,276.277784 519.524323,291.353766 C519.346662,306.429748 527.230654,301.761754 534.199471,302.85788 C534.293054,306.064556 534.357392,309.909861 534.392485,314.393797 C523.00381,315.234892 515.346098,314.847949 511.419352,313.232967 C507.492605,311.617986 505.070965,307.705966 504.154432,301.496907 C494.524634,313.46775 482.37328,316.845643 466.742176,316.845643 C442.190155,316.845643 425.460846,307.146698 425.460846,288.534206 C425.460846,268.452307 445.637458,262.49715 467.402295,262.49715 C475.316781,262.49715 487.475208,262.599495 503.877575,262.804187 C503.877575,246.314172 502.696282,241.788619 478.01083,240.901911 C464.961563,240.433179 448.222446,243.325878 448.244231,251.102668 L431.339964,250.852416 C433.901132,228.124774 464.670107,228.867747 477.330944,229.095057 Z M442.068588,288.385504 C442.068588,299.814227 457.213588,305.895689 468.899663,304.450474 C493.323964,301.429926 504.932245,291.859855 503.724506,275.74026 C487.276829,275.628339 476.026307,275.47287 469.972942,275.273852 C453.925413,274.746255 442.068588,277.446584 442.068588,288.385504 Z M552.359095,372.837345 C589.632608,373.506544 594.632785,385.251718 594.552474,401.337677 C594.472164,417.423635 594.730136,420.020072 594.552474,435.096054 C594.374813,450.172036 602.258805,445.504042 609.227622,446.600168 C609.321205,449.806844 609.385543,453.652149 609.420637,458.136085 C598.031961,458.97718 590.374249,458.590237 586.447503,456.975255 C582.520756,455.360274 580.099116,451.448254 579.182584,445.239195 C569.552786,457.210038 557.401431,460.587931 541.770327,460.587931 C517.218306,460.587931 500.488997,450.888986 500.488997,432.276494 C500.488997,412.194596 520.66561,406.239438 542.430446,406.239438 C550.344932,406.239438 562.503359,406.341784 578.905726,406.546475 C578.905726,390.056461 577.724433,385.530907 553.038981,384.6442 C539.989714,384.175467 523.250597,387.068166 523.272382,394.844956 L506.368115,394.594704 C508.929283,371.867062 539.698258,372.610036 552.359095,372.837345 Z M517.096739,432.127792 C517.096739,443.556515 532.241739,449.637977 543.927815,448.192762 C568.352115,445.172214 579.960396,435.602143 578.752657,419.482548 C562.30498,419.370627 551.054458,419.215158 545.001094,419.01614 C528.953564,418.488543 517.096739,421.188872 517.096739,432.127792 Z M305.563344,375.291504 L305.563344,453.160874 C305.563344,486.624174 282.426269,491.97003 256.922542,493.211858 C241.618199,493.957058 205.291604,491.061354 207.054144,463.292361 L223.230456,462.781071 C223.246728,475.070032 238.966111,479.471243 252.889597,479.471243 C266.813084,479.471243 288.528356,476.334128 290.185554,461.619747 C290.185554,461.619747 289.923486,456.085761 289.399349,445.017788 C276.188865,455.90905 263.808265,458.29593 251.371892,458.235864 C225.640097,458.111583 203.256551,444.121049 203.256551,416.3672 C203.256551,388.930539 225.642687,372.79307 251.724385,373.22979 C273.413293,373.592955 283.234935,379.786059 289.835657,385.417972 L289.963905,375.291504 L305.563344,375.291504 Z M253.134358,445.07261 C270.461968,445.146466 289.834351,436.03971 289.900548,416.068978 C289.966745,396.098247 268.255989,386.126636 253.663098,386.23445 C239.070208,386.342264 219.999985,395.750056 219.999985,416.3672 C219.999985,435.715598 235.806748,444.998753 253.134358,445.07261 Z M467.042846,374.454939 L467.042846,386.247625 L444.005527,386.247625 C444.005527,417.58089 444.005527,433.247522 444.005527,433.247522 C444.005527,447.964927 457.635737,443.861573 466.354054,443.861573 C466.337876,448.429007 466.210151,453.929257 466.389817,458.016446 C443.833423,458.32657 426.507735,462.830995 428.0328,433.059272 C428.0328,433.059272 428.0328,417.455389 428.0328,386.247625 L413.780636,386.247625 L413.780636,374.454939 L428.0328,374.454939 L428.0328,346.946373 L444.005527,346.946373 L444.005527,374.454939 L467.042846,374.454939 Z M639,339 L657,339 L657,458 L639,458 L639,339 Z" id="Type" fill="#2C5597"></path>
            </g>
        </g>
    </g>
</svg>